<?xml version="1.0" encoding="utf-8"?>
<!-- Generator: Adobe Illustrator 25.4.1, SVG Export Plug-In . SVG Version: 6.00 Build 0)  -->
<svg version="1.1" id="Layer_1" xmlns="http://www.w3.org/2000/svg" xmlns:xlink="http://www.w3.org/1999/xlink" x="0px" y="0px"
	 viewBox="0 0 31.9 32" style="enable-background:new 0 0 31.9 32;" xml:space="preserve">
<style type="text/css">
	.st0{fill:#223555;}
	.st1{fill:#EE374B;}
</style>
<g>
	<g>
		<path class="st0" d="M17.5,17.4l-3.9-4c0,0-0.1,0.1-0.1,0.1c-0.1-0.2-0.2-0.4-0.4-0.5c-1.4-1.5-2.9-3-4.4-4.5
			C8.6,8.4,8.3,8.2,8.1,8.2c-2.4,0-4.9,0-7.3,0c-0.1,0-0.2,0-0.4,0.1c3.1,3.2,6.1,6.4,9.1,9.6c0,0,0,0,0,0l3.7,3.8
			c0.5-0.5,1-1,1.6-1.5c0.7-0.7,1.4-1.4,2.1-2c0,0,0.1,0.1,0.1,0.1c-0.5,0.7-1,1.3-1.6,2c0.5-0.7,1-1.3,1.5-2l0.1-0.1L17.5,17.4
			C17.5,17.4,17.5,17.4,17.5,17.4C17.5,17.4,17.5,17.4,17.5,17.4z"/>
		<path class="st0" d="M0.7,26.9c2.2,0,4.3,0,6.4,0c0.4,0,0.7-0.1,1-0.4c1.6-1.6,3.3-3.2,4.9-4.8l-3.7-3.8
			C6.5,20.9,3.7,23.9,0.7,26.9z"/>
		<path class="st0" d="M16.8,18.3c-0.5,0.6-1,1.3-1.5,2c-0.5,0.7-1,1.4-1.6,2c1.3,1.4,2.6,2.8,3.9,4.1l1.7,1.7c0,0,0,0,0,0
			c0.2,0.1,0.4,0.2,0.6,0.2c1.6,0,3.3,0,4.9,0c0.9,0,1.9,0,2.8,0c0.1,0,0.2,0,0.3,0c0,0,0.1,0,0.1,0c-2-2-3.9-4-5.8-6
			c-1.6-1.6-3.2-3.2-4.8-4.9L16.8,18.3L16.8,18.3z"/>
	</g>
	<path class="st1" d="M31.6,3.7c-2.8,0-5.5,0-8.1,0c-0.4,0-0.6,0.1-0.9,0.4c-1.3,1.3-2.5,2.6-3.8,4c-1.7,1.8-3.3,3.5-5.1,5.4l3.9,4
		C22.2,12.8,26.8,8.3,31.6,3.7z"/>
	<path class="st1" d="M13.7,22.3c0.5-0.7,1.1-1.4,1.6-2C14.8,20.9,14.2,21.6,13.7,22.3C13.7,22.3,13.7,22.3,13.7,22.3z"/>
	<path class="st0" d="M16.3,25l-4.5-4.6l4.9-2.8l1.5,1.9c0,0,0,3.1,0,3.3S16.3,25,16.3,25z"/>
</g>
</svg>
